<?xml version="1.0" encoding="UTF-8"?>
<svg id="Layer_1" data-name="Layer 1" xmlns="http://www.w3.org/2000/svg" viewBox="0 0 130.13 67.27">
  <defs>
    <style>
      .cls-1 {
        letter-spacing: -.01em;
      }

      .cls-2 {
        fill: #231f20;
        stroke: #a8a9ac;
      }

      .cls-2, .cls-3 {
        stroke-miterlimit: 10;
      }

      .cls-4 {
        letter-spacing: 0em;
      }

      .cls-5 {
        fill: #a7a9ac;
      }

      .cls-5, .cls-6 {
        stroke-width: 0px;
      }

      .cls-7 {
        letter-spacing: 0em;
      }

      .cls-3 {
        fill: rgba(109, 196, 151, .75);
        stroke: #437558;
      }

      .cls-8 {
        fill: #a8a9ac;
        font-family: MyriadPro-Regular, 'Myriad Pro', sans-serif;
        font-size: 6px;
        font-weight: 100;
      }

      .cls-6 {
        fill: #f1f2f2;
      }
    </style>
  </defs>
  <rect class="cls-6" x="2.16" y="2.17" width="108.79" height="52.34"/>
  <path class="cls-3" d="M2.77,2.77s-.79,13.55,10.65,11.72,16.64-.76,21.14.17,18.25,1.29,22.64-1.27,11.21-1.46,16.52.91,22.58,7.5,27.69,3.11,9.05-14.65,9.05-14.65"/>
  <text class="cls-8" transform="translate(47.2 63.93)">Breadth</text>
  <text class="cls-8" transform="translate(113.87 29.73)">Depth</text>
  <line class="cls-2" x1="2.76" y1="55.96" x2="2.76" y2="65.1"/>
  <line class="cls-2" x1="110.47" y1="55.96" x2="110.47" y2="65.1"/>
  <line class="cls-2" x1="2.88" y1="62.27" x2="43.47" y2="62.27"/>
  <line class="cls-2" x1="70.29" y1="62.27" x2="110.47" y2="62.27"/>
  <line class="cls-2" x1="4.87" y1="60.3" x2="2.76" y2="62.41"/>
  <line class="cls-2" x1="5.14" y1="64.22" x2="2.88" y2="62.27"/>
  <line class="cls-2" x1="108.36" y1="64.23" x2="110.47" y2="62.12"/>
  <line class="cls-2" x1="108.09" y1="60.31" x2="110.34" y2="62.26"/>
  <line class="cls-2" x1="113.87" y1="54.34" x2="123.01" y2="54.34"/>
  <line class="cls-2" x1="120.18" y1="54.22" x2="120.18" y2="37.42"/>
  <line class="cls-2" x1="118.21" y1="52.23" x2="120.31" y2="54.34"/>
  <line class="cls-2" x1="122.13" y1="51.96" x2="120.18" y2="54.22"/>
  <line class="cls-2" x1="114.63" y1="2.86" x2="123.78" y2="2.86"/>
  <line class="cls-2" x1="120.95" y1="2.98" x2="120.95" y2="19.78"/>
  <line class="cls-2" x1="118.97" y1="4.97" x2="121.08" y2="2.86"/>
  <line class="cls-2" x1="122.9" y1="5.24" x2="120.95" y2="2.98"/>
  <rect class="cls-5" x="2.16" y="2.17" width="108.79" height="1.39"/>
</svg>