<?xml version="1.0" encoding="UTF-8"?>
<svg id="Layer_1" data-name="Layer 1" xmlns="http://www.w3.org/2000/svg" viewBox="0 0 131.33 67.32">
  <defs>
    <style>
      .cls-1 {
        letter-spacing: -.01em;
      }

      .cls-2 {
        fill: #231f20;
        stroke: #a8a9ac;
      }

      .cls-2, .cls-3 {
        stroke-miterlimit: 10;
      }

      .cls-4 {
        letter-spacing: 0em;
      }

      .cls-5 {
        fill: #a7a9ac;
      }

      .cls-5, .cls-6 {
        stroke-width: 0px;
      }

      .cls-7 {
        letter-spacing: 0em;
      }

      .cls-3 {
        fill: rgba(58, 84, 165, .25);
        stroke: #3953a5;
      }

      .cls-8 {
        fill: #a8a9ac;
        font-family: MyriadPro-Regular, 'Myriad Pro', sans-serif;
        font-size: 6px;
        font-weight: 100;
      }

      .cls-6 {
        fill: #f1f2f2;
      }
    </style>
  </defs>
  <rect class="cls-6" x="2.17" y="2.17" width="108.79" height="52.34"/>
  <text class="cls-8" transform="translate(47.21 63.93)">Breadth</text>
  <text class="cls-8" transform="translate(113.87 29.73)">Depth</text>
  <line class="cls-2" x1="2.76" y1="55.96" x2="2.76" y2="65.11"/>
  <line class="cls-2" x1="110.47" y1="55.96" x2="110.47" y2="65.11"/>
  <line class="cls-2" x1="2.89" y1="62.27" x2="43.47" y2="62.27"/>
  <line class="cls-2" x1="70.29" y1="62.27" x2="110.47" y2="62.27"/>
  <line class="cls-2" x1="4.87" y1="60.3" x2="2.76" y2="62.41"/>
  <line class="cls-2" x1="5.14" y1="64.22" x2="2.89" y2="62.27"/>
  <line class="cls-2" x1="108.36" y1="64.23" x2="110.47" y2="62.12"/>
  <line class="cls-2" x1="108.09" y1="60.31" x2="110.34" y2="62.26"/>
  <line class="cls-2" x1="113.87" y1="54.34" x2="123.02" y2="54.34"/>
  <line class="cls-2" x1="120.18" y1="54.22" x2="120.18" y2="37.42"/>
  <line class="cls-2" x1="118.21" y1="52.24" x2="120.32" y2="54.34"/>
  <line class="cls-2" x1="122.13" y1="51.97" x2="120.18" y2="54.22"/>
  <line class="cls-2" x1="114.64" y1="2.86" x2="123.79" y2="2.86"/>
  <line class="cls-2" x1="120.95" y1="2.99" x2="120.95" y2="19.79"/>
  <line class="cls-2" x1="118.98" y1="4.97" x2="121.09" y2="2.86"/>
  <line class="cls-2" x1="122.9" y1="5.24" x2="120.95" y2="2.99"/>
  <path class="cls-3" d="M38.7,2.86s-1.83,40.03,1.74,41.22c5.32.64,15.4,0,15.4,0,0,0,1.92-40.64,1.92-41.22"/>
  <rect class="cls-5" x="2.17" y="2.17" width="108.79" height="1.39"/>
</svg>