<?xml version="1.0" encoding="UTF-8"?>
<svg id="Layer_1" data-name="Layer 1" xmlns="http://www.w3.org/2000/svg" viewBox="0 0 132.82 69.39">
  <defs>
    <style>
      .cls-1 {
        letter-spacing: -.01em;
      }

      .cls-2 {
        fill: #231f20;
        stroke: #a8a9ac;
      }

      .cls-2, .cls-3 {
        stroke-miterlimit: 10;
      }

      .cls-4 {
        letter-spacing: 0em;
      }

      .cls-5 {
        fill: #a7a9ac;
      }

      .cls-5, .cls-6 {
        stroke-width: 0px;
      }

      .cls-7 {
        letter-spacing: 0em;
      }

      .cls-3 {
        fill: rgba(170, 31, 36, .56);
        stroke: #aa1f24;
      }

      .cls-8 {
        fill: #a8a9ac;
        font-family: MyriadPro-Regular, 'Myriad Pro', sans-serif;
        font-size: 6px;
        font-weight: 100;
      }

      .cls-6 {
        fill: #f1f2f2;
      }
    </style>
  </defs>
  <rect class="cls-6" x="3.37" y="3.55" width="108.79" height="52.34"/>
  <text class="cls-8" transform="translate(48.41 65.31)">Breadth</text>
  <text class="cls-8" transform="translate(115.07 31.11)">Depth</text>
  <line class="cls-2" x1="3.97" y1="57.34" x2="3.97" y2="66.49"/>
  <line class="cls-2" x1="111.67" y1="57.34" x2="111.67" y2="66.49"/>
  <line class="cls-2" x1="4.09" y1="63.65" x2="44.67" y2="63.65"/>
  <line class="cls-2" x1="71.49" y1="63.65" x2="111.67" y2="63.65"/>
  <line class="cls-2" x1="6.08" y1="61.68" x2="3.97" y2="63.79"/>
  <line class="cls-2" x1="6.35" y1="65.61" x2="4.09" y2="63.65"/>
  <line class="cls-2" x1="109.56" y1="65.61" x2="111.67" y2="63.51"/>
  <line class="cls-2" x1="109.3" y1="61.69" x2="111.55" y2="63.64"/>
  <line class="cls-2" x1="115.07" y1="55.73" x2="124.22" y2="55.73"/>
  <line class="cls-2" x1="121.38" y1="55.6" x2="121.38" y2="38.8"/>
  <line class="cls-2" x1="119.41" y1="53.62" x2="121.52" y2="55.73"/>
  <line class="cls-2" x1="123.34" y1="53.35" x2="121.38" y2="55.6"/>
  <line class="cls-2" x1="115.84" y1="4.25" x2="124.99" y2="4.25"/>
  <line class="cls-2" x1="122.15" y1="4.37" x2="122.15" y2="21.17"/>
  <line class="cls-2" x1="120.18" y1="6.36" x2="122.29" y2="4.25"/>
  <line class="cls-2" x1="124.11" y1="6.63" x2="122.15" y2="4.37"/>
  <rect class="cls-5" x="3.37" y="3.55" width="108.79" height="1.39"/>
  <path class="cls-3" d="M3.37,3.55s.85,7.88,10.23,7.42c10.41.11,15.9,1.75,26.64.02,10.18-1.73,7.89-.36,7.89-.36,0,0,3.09,20.47,2.06,31.33-.8,10.41.21,10.75.21,10.75h19.23s-.34-40.48,0-42.31,21.04.11,21.04.11c0,0,14.64.11,16.35-.11s3.59-.46,3.59-.46c0,0,1.42-.31,1.55-6.39"/>
</svg>