<?xml version="1.0" encoding="UTF-8" standalone="no" ?>
<!DOCTYPE svg PUBLIC "-//W3C//DTD SVG 1.1//EN" "http://www.w3.org/Graphics/SVG/1.1/DTD/svg11.dtd">
<svg xmlns="http://www.w3.org/2000/svg" xmlns:xlink="http://www.w3.org/1999/xlink" version="1.1" width="400" height="300" viewBox="0 0 400 300" xml:space="preserve">
<desc>Created with Fabric.js 4.6.0</desc>
<defs>
</defs>
<g transform="matrix(1 0 0 1 200.09 150.46)" id="v8rXXcwBYH0rzaDhAoJ1y"  >
<path style="stroke: rgb(198,160,228); stroke-width: 0; stroke-dasharray: none; stroke-linecap: butt; stroke-dashoffset: 0; stroke-linejoin: miter; stroke-miterlimit: 4; fill: rgb(93,166,217); fill-rule: nonzero; opacity: 1;" vector-effect="non-scaling-stroke"  transform=" translate(-200, -150)" d="M 0 0 L 400 0 L 400 300 L 0 300 z" stroke-linecap="round" />
</g>
<g transform="matrix(0.71 0 0 0.34 135.38 238.65)" id="j4eeZRGE8jLi8ycEBn1St"  >
<path style="stroke: rgb(181,181,181); stroke-width: 0; stroke-dasharray: none; stroke-linecap: butt; stroke-dashoffset: 0; stroke-linejoin: miter; stroke-miterlimit: 4; fill: rgb(0,0,0); fill-opacity: 0.19; fill-rule: nonzero; opacity: 1;" vector-effect="non-scaling-stroke"  transform=" translate(0, 0)" d="M 0 -56.56934 C 31.22628 -56.56934 56.56934 -31.226269999999996 56.56934 0 C 56.56934 31.22628 31.226269999999996 56.56934 0 56.56934 C -31.22628 56.56934 -56.56934 31.226269999999996 -56.56934 0 C -56.56934 -31.22628 -31.226269999999996 -56.56934 0 -56.56934 z" stroke-linecap="round" />
</g>
<g transform="matrix(0.81 0 0 0.39 283.7 156.13)" id="soa6co8ObZrDGfzMikxKU"  >
<path style="stroke: rgb(181,181,181); stroke-width: 0; stroke-dasharray: none; stroke-linecap: butt; stroke-dashoffset: 0; stroke-linejoin: miter; stroke-miterlimit: 4; fill: rgb(0,0,0); fill-opacity: 0.19; fill-rule: nonzero; opacity: 1;" vector-effect="non-scaling-stroke"  transform=" translate(0, 0)" d="M 0 -56.56934 C 31.22628 -56.56934 56.56934 -31.226269999999996 56.56934 0 C 56.56934 31.22628 31.226269999999996 56.56934 0 56.56934 C -31.22628 56.56934 -56.56934 31.226269999999996 -56.56934 0 C -56.56934 -31.22628 -31.226269999999996 -56.56934 0 -56.56934 z" stroke-linecap="round" />
</g>
<g transform="matrix(0.55 0 0 0.59 119.89 217.92)" id="bf7mK1eNhEts9mILBJN64"  >
<path style="stroke: rgb(0,0,0); stroke-width: 0; stroke-dasharray: none; stroke-linecap: butt; stroke-dashoffset: 0; stroke-linejoin: miter; stroke-miterlimit: 4; fill: rgb(58,58,58); fill-rule: nonzero; opacity: 1;" vector-effect="non-scaling-stroke"  transform=" translate(0, 0)" d="M -2.11864 -37.07627 L 1.6949199999999998 29.872880000000002 L -12.71186 29.872880000000002 L -12.71186 39.61864 L 10.169500000000001 39.61864 L 12.711870000000001 -39.61865 z" stroke-linecap="round" />
</g>
<g transform="matrix(0.25 0.03 -0.05 0.38 264.81 139.88)" id="QFjw2JXGeOpcsAOyt79SZ"  >
<path style="stroke: rgb(0,0,0); stroke-width: 0; stroke-dasharray: none; stroke-linecap: butt; stroke-dashoffset: 0; stroke-linejoin: miter; stroke-miterlimit: 4; fill: rgb(214,159,108); fill-rule: nonzero; opacity: 1;" vector-effect="non-scaling-stroke"  transform=" translate(0, 0)" d="M 4.28683 -53.48417 L -27.929339999999996 51.76613 L -8.002449999999996 62.11936 L 27.929340000000003 -62.11937 z" stroke-linecap="round" />
</g>
<g transform="matrix(0.25 0.03 -0.05 0.38 269.43 139.44)" id="W66_r6yE2MgcEBqSWdY7k"  >
<path style="stroke: rgb(0,0,0); stroke-width: 0; stroke-dasharray: none; stroke-linecap: butt; stroke-dashoffset: 0; stroke-linejoin: miter; stroke-miterlimit: 4; fill: rgb(226,178,135); fill-rule: nonzero; opacity: 1;" vector-effect="non-scaling-stroke"  transform=" translate(0, 0)" d="M -26.79659 64.73153 L -7.917169999999999 55.59633000000001 L 26.796590000000002 -64.73151999999999 L 9.635200000000001 -64.73151999999999 z" stroke-linecap="round" />
</g>
<g transform="matrix(-0.24 0.06 0.09 0.37 302.67 135.5)" id="2xAP56pD7F4wIYXfSoNwT"  >
<path style="stroke: rgb(0,0,0); stroke-width: 0; stroke-dasharray: none; stroke-linecap: butt; stroke-dashoffset: 0; stroke-linejoin: miter; stroke-miterlimit: 4; fill: rgb(226,178,135); fill-rule: nonzero; opacity: 1;" vector-effect="non-scaling-stroke"  transform=" translate(0, 0)" d="M 4.28683 -53.48417 L -27.929339999999996 51.76613 L -8.002449999999996 62.11936 L 27.929340000000003 -62.11937 z" stroke-linecap="round" />
</g>
<g transform="matrix(-0.24 0.06 0.09 0.37 298.03 135.62)" id="qfohs8xyTLtcBYr_iXGoh"  >
<path style="stroke: rgb(0,0,0); stroke-width: 0; stroke-dasharray: none; stroke-linecap: butt; stroke-dashoffset: 0; stroke-linejoin: miter; stroke-miterlimit: 4; fill: rgb(214,159,108); fill-rule: nonzero; opacity: 1;" vector-effect="non-scaling-stroke"  transform=" translate(0, 0)" d="M -26.79659 64.73153 L -7.917169999999999 55.59633000000001 L 26.796590000000002 -64.73151999999999 L 9.635200000000001 -64.73151999999999 z" stroke-linecap="round" />
</g>
<g transform="matrix(0.81 0 0 0.81 281.5 135.04)" id="vkBj9NlPW4PMHTlLZa65Q"  >
<path style="stroke: rgb(0,0,0); stroke-width: 0; stroke-dasharray: none; stroke-linecap: butt; stroke-dashoffset: 0; stroke-linejoin: miter; stroke-miterlimit: 4; fill: rgb(226,178,135); fill-rule: nonzero; opacity: 1;" vector-effect="non-scaling-stroke"  transform=" translate(0, 0)" d="M 9.19118 -15.83835 L -4.044110000000002 16.0244 L -9.191170000000001 17.98518 L 4.0441199999999995 -17.98518 z" stroke-linecap="round" />
</g>
<g transform="matrix(0.81 0 0 0.81 277.67 133.13)" id="3enhIMmbUN1cZjX3s6IgO"  >
<path style="stroke: rgb(0,0,0); stroke-width: 0; stroke-dasharray: none; stroke-linecap: butt; stroke-dashoffset: 0; stroke-linejoin: miter; stroke-miterlimit: 4; fill: rgb(214,159,108); fill-rule: nonzero; opacity: 1;" vector-effect="non-scaling-stroke"  transform=" translate(0, 0)" d="M -4.47182 20.34804 L -9.263480000000001 16.66177 L 5.219359999999998 -20.348029999999998 L 9.263479999999998 -16.12231 z" stroke-linecap="round" />
</g>
<g transform="matrix(0.68 0 0 0.81 280.35 80.43)" id="S42h1Wrrq49rqEOCeWx_j"  >
<path style="stroke: rgb(22,10,164); stroke-width: 0; stroke-dasharray: none; stroke-linecap: butt; stroke-dashoffset: 0; stroke-linejoin: miter; stroke-miterlimit: 4; fill: rgb(205,205,205); fill-rule: nonzero; opacity: 1;" vector-effect="non-scaling-stroke"  transform=" translate(0, 0)" d="M 0 -55.72472 C 30.76005 -55.72472 55.72472 -30.760039999999996 55.72472 0 C 55.72472 30.76005 30.760039999999996 55.72472 0 55.72472 C -30.76005 55.72472 -55.72472 30.760039999999996 -55.72472 0 C -55.72472 -30.76005 -30.760039999999996 -55.72472 0 -55.72472 z" stroke-linecap="round" />
</g>
<g transform="matrix(0.68 0 0 0.81 283.7 80.43)" id="RqV6lQ1XDMHIVrzalg47A"  >
<path style="stroke: rgb(22,10,164); stroke-width: 0; stroke-dasharray: none; stroke-linecap: butt; stroke-dashoffset: 0; stroke-linejoin: miter; stroke-miterlimit: 4; fill: rgb(255,255,255); fill-rule: nonzero; opacity: 1;" vector-effect="non-scaling-stroke"  transform=" translate(0, 0)" d="M 0 -55.72472 C 30.76005 -55.72472 55.72472 -30.760039999999996 55.72472 0 C 55.72472 30.76005 30.760039999999996 55.72472 0 55.72472 C -30.76005 55.72472 -55.72472 30.760039999999996 -55.72472 0 C -55.72472 -30.76005 -30.760039999999996 -55.72472 0 -55.72472 z" stroke-linecap="round" />
</g>
<g transform="matrix(0.57 0 0 0.71 283.7 80.43)" id="k94DszDwSJh-ubG8nnAr7"  >
<path style="stroke: rgb(22,10,164); stroke-width: 0; stroke-dasharray: none; stroke-linecap: butt; stroke-dashoffset: 0; stroke-linejoin: miter; stroke-miterlimit: 4; fill: rgb(235,17,17); fill-rule: nonzero; opacity: 1;" vector-effect="non-scaling-stroke"  transform=" translate(0, 0)" d="M 0 -55.72472 C 30.76005 -55.72472 55.72472 -30.760039999999996 55.72472 0 C 55.72472 30.76005 30.760039999999996 55.72472 0 55.72472 C -30.76005 55.72472 -55.72472 30.760039999999996 -55.72472 0 C -55.72472 -30.76005 -30.760039999999996 -55.72472 0 -55.72472 z" stroke-linecap="round" />
</g>
<g transform="matrix(0.45 0 0 0.58 283.7 80.43)" id="SAkXn25CDhRIRbJerSF3r"  >
<path style="stroke: rgb(22,10,164); stroke-width: 0; stroke-dasharray: none; stroke-linecap: butt; stroke-dashoffset: 0; stroke-linejoin: miter; stroke-miterlimit: 4; fill: rgb(255,255,255); fill-rule: nonzero; opacity: 1;" vector-effect="non-scaling-stroke"  transform=" translate(0, 0)" d="M 0 -55.72472 C 30.76005 -55.72472 55.72472 -30.760039999999996 55.72472 0 C 55.72472 30.76005 30.760039999999996 55.72472 0 55.72472 C -30.76005 55.72472 -55.72472 30.760039999999996 -55.72472 0 C -55.72472 -30.76005 -30.760039999999996 -55.72472 0 -55.72472 z" stroke-linecap="round" />
</g>
<g transform="matrix(0.3 0 0 0.4 283.7 80.43)" id="EEtpHjtl55I5ZM9G0HrYn"  >
<path style="stroke: rgb(22,10,164); stroke-width: 0; stroke-dasharray: none; stroke-linecap: butt; stroke-dashoffset: 0; stroke-linejoin: miter; stroke-miterlimit: 4; fill: rgb(255,255,255); fill-rule: nonzero; opacity: 1;" vector-effect="non-scaling-stroke"  transform=" translate(0, 0)" d="M 0 -55.72472 C 30.76005 -55.72472 55.72472 -30.760039999999996 55.72472 0 C 55.72472 30.76005 30.760039999999996 55.72472 0 55.72472 C -30.76005 55.72472 -55.72472 30.760039999999996 -55.72472 0 C -55.72472 -30.76005 -30.760039999999996 -55.72472 0 -55.72472 z" stroke-linecap="round" />
</g>
<g transform="matrix(0.76 -0.43 0.4 0.82 118.41 106.65)" id="0V-eZb8YqoO1UKKk1RQMR"  >
<path style="stroke: rgb(100,194,82); stroke-width: 0; stroke-dasharray: none; stroke-linecap: butt; stroke-dashoffset: 0; stroke-linejoin: miter; stroke-miterlimit: 4; fill: rgb(48,39,4); fill-rule: nonzero; opacity: 1;" vector-effect="non-scaling-stroke"  transform=" translate(0, 0)" d="M -16.61764 -16.61764 L 16.617649999999998 -16.61764 L 16.617649999999998 16.617649999999998 L -16.61764 16.617649999999998 z" stroke-linecap="round" />
</g>
<g transform="matrix(0.32 0 0 0.44 283.7 80.43)" id="HfZyEuZwghwlSby-cMbn6"  >
<path style="stroke: rgb(22,10,164); stroke-width: 0; stroke-dasharray: none; stroke-linecap: butt; stroke-dashoffset: 0; stroke-linejoin: miter; stroke-miterlimit: 4; fill: rgb(235,17,17); fill-rule: nonzero; opacity: 1;" vector-effect="non-scaling-stroke"  transform=" translate(0, 0)" d="M 0 -55.72472 C 30.76005 -55.72472 55.72472 -30.760039999999996 55.72472 0 C 55.72472 30.76005 30.760039999999996 55.72472 0 55.72472 C -30.76005 55.72472 -55.72472 30.760039999999996 -55.72472 0 C -55.72472 -30.76005 -30.760039999999996 -55.72472 0 -55.72472 z" stroke-linecap="round" />
</g>
<g transform="matrix(0.22 0 0 0.3 283.7 80.43)" id="0e4oPRW-L9MbbR7bfoDbE"  >
<path style="stroke: rgb(22,10,164); stroke-width: 0; stroke-dasharray: none; stroke-linecap: butt; stroke-dashoffset: 0; stroke-linejoin: miter; stroke-miterlimit: 4; fill: rgb(255,255,255); fill-rule: nonzero; opacity: 1;" vector-effect="non-scaling-stroke"  transform=" translate(0, 0)" d="M 0 -55.72472 C 30.76005 -55.72472 55.72472 -30.760039999999996 55.72472 0 C 55.72472 30.76005 30.760039999999996 55.72472 0 55.72472 C -30.76005 55.72472 -55.72472 30.760039999999996 -55.72472 0 C -55.72472 -30.76005 -30.760039999999996 -55.72472 0 -55.72472 z" stroke-linecap="round" />
</g>
<g transform="matrix(0.13 0 0 0.17 283.7 80.43)" id="E_ne15aPw-Qn2rJFqtnm-"  >
<path style="stroke: rgb(22,10,164); stroke-width: 0; stroke-dasharray: none; stroke-linecap: butt; stroke-dashoffset: 0; stroke-linejoin: miter; stroke-miterlimit: 4; fill: rgb(235,17,17); fill-rule: nonzero; opacity: 1;" vector-effect="non-scaling-stroke"  transform=" translate(0, 0)" d="M 0 -55.72472 C 30.76005 -55.72472 55.72472 -30.760039999999996 55.72472 0 C 55.72472 30.76005 30.760039999999996 55.72472 0 55.72472 C -30.76005 55.72472 -55.72472 30.760039999999996 -55.72472 0 C -55.72472 -30.76005 -30.760039999999996 -55.72472 0 -55.72472 z" stroke-linecap="round" />
</g>
<g transform="matrix(0.7 -0.4 0.37 0.75 157.12 110.09)" id="v5JUPxu3wyCjQUqlVXVTc"  >
<path style="stroke: rgb(100,194,82); stroke-width: 0; stroke-dasharray: none; stroke-linecap: butt; stroke-dashoffset: 0; stroke-linejoin: miter; stroke-miterlimit: 4; fill: rgb(48,39,4); fill-rule: nonzero; opacity: 1;" vector-effect="non-scaling-stroke"  transform=" translate(0, 0)" d="M -16.61764 -16.61764 L 16.617649999999998 -16.61764 L 16.617649999999998 16.617649999999998 L -16.61764 16.617649999999998 z" stroke-linecap="round" />
</g>
<g transform="matrix(1.39 0.03 -0.02 0.94 141.28 114.77)" id="xUGNxrZuDtyf2mw1YM0Q9"  >
<path style="stroke: rgb(100,194,82); stroke-width: 0; stroke-dasharray: none; stroke-linecap: butt; stroke-dashoffset: 0; stroke-linejoin: miter; stroke-miterlimit: 4; fill: rgb(48,39,4); fill-rule: nonzero; opacity: 1;" vector-effect="non-scaling-stroke"  transform=" translate(0, 0)" d="M -16.61764 -16.61764 L 16.617649999999998 -16.61764 L 16.617649999999998 16.617649999999998 L -16.61764 16.617649999999998 z" stroke-linecap="round" />
</g>
<g transform="matrix(0.31 0 0 0.5 137.67 145.62)" id="r1iahgtSUihT2Bzm9cXbw"  >
<path style="stroke: rgb(133,30,224); stroke-width: 0; stroke-dasharray: none; stroke-linecap: butt; stroke-dashoffset: 0; stroke-linejoin: miter; stroke-miterlimit: 4; fill: rgb(254,212,173); fill-rule: nonzero; opacity: 1;" vector-effect="non-scaling-stroke"  transform=" translate(0, 0)" d="M -100.92789 -0.05407 C -100.92789 -43.041880000000006 -85.97561 -85.97560999999999 -85.97561 -85.97560999999999 L 85.97561 -85.97560999999999 C 85.97561 -85.97560999999999 100.92789 -43.04187999999999 100.92789 -0.054069999999995844 C 100.92789 42.93374000000001 85.97561 85.97561 85.97561 85.97561 L -85.97561 85.97561 C -85.97561 85.97561 -100.92789 42.933730000000004 -100.92789 -0.054069999999995844 z" stroke-linecap="round" />
</g>
<g transform="matrix(0.55 0 0 0.38 137.17 159.92)" id="Iotmax-cCOOlBWm3Cq1wG"  >
<path style="stroke: rgb(121,111,161); stroke-width: 0; stroke-dasharray: none; stroke-linecap: butt; stroke-dashoffset: 0; stroke-linejoin: miter; stroke-miterlimit: 4; fill: rgb(255,255,255); fill-rule: nonzero; opacity: 1;" vector-effect="non-scaling-stroke"  transform=" translate(0, 0)" d="M -59.5339 -59.5339 L 59.53389 -59.5339 L 59.53389 59.53389 L -59.5339 59.53389 z" stroke-linecap="round" />
</g>
<g transform="matrix(0.81 0 0 0.81 53.21 140.15)" id="DAb1NF1i9DMRUakbrUafG"  >
<path style="stroke: rgb(0,0,0); stroke-width: 1; stroke-dasharray: none; stroke-linecap: butt; stroke-dashoffset: 0; stroke-linejoin: miter; stroke-miterlimit: 4; fill: rgb(255,255,255); fill-opacity: 0; fill-rule: nonzero; opacity: 1;" vector-effect="non-scaling-stroke"  transform=" translate(0, 0)" d="M 0 0" stroke-linecap="round" />
</g>
<g transform="matrix(0.57 0 0 0.16 137.4 188.69)" id="GlTlbim9ltKqVg1DyDqN4"  >
<path style="stroke: rgb(121,111,161); stroke-width: 0; stroke-dasharray: none; stroke-linecap: butt; stroke-dashoffset: 0; stroke-linejoin: miter; stroke-miterlimit: 4; fill: rgb(58,58,58); fill-rule: nonzero; opacity: 1;" vector-effect="non-scaling-stroke"  transform=" translate(0, 0)" d="M -59.5339 -59.5339 L 59.53389 -59.5339 L 59.53389 59.53389 L -59.5339 59.53389 z" stroke-linecap="round" />
</g>
<g transform="matrix(-0.55 0 0 0.59 153.22 217.92)" id="s5M6PE5oQAt2g1k0FNJnk"  >
<path style="stroke: rgb(0,0,0); stroke-width: 0; stroke-dasharray: none; stroke-linecap: butt; stroke-dashoffset: 0; stroke-linejoin: miter; stroke-miterlimit: 4; fill: rgb(58,58,58); fill-rule: nonzero; opacity: 1;" vector-effect="non-scaling-stroke"  transform=" translate(0, 0)" d="M -2.11864 -37.07627 L 1.6949199999999998 29.872880000000002 L -12.71186 29.872880000000002 L -12.71186 39.61864 L 10.169500000000001 39.61864 L 12.711870000000001 -39.61865 z" stroke-linecap="round" />
</g>
<g transform="matrix(0.77 0 0 0.99 137.17 141.37)" id="g4IEmHvcyYTT0AMKGoi7K"  >
<path style="stroke: rgb(0,0,0); stroke-width: 0; stroke-dasharray: none; stroke-linecap: butt; stroke-dashoffset: 0; stroke-linejoin: miter; stroke-miterlimit: 4; fill: rgb(175,43,83); fill-rule: nonzero; opacity: 1;" vector-effect="non-scaling-stroke"  transform=" translate(0, 0)" d="M -0.18837 -3.27953 L -4.55882 3.27953 L 4.5588299999999995 3.27953 z" stroke-linecap="round" />
</g>
<g transform="matrix(0.81 0 0 0.15 138.17 115.82)" id="rPUbVEO3_euZg2DNoDWYA"  >
<path style="stroke: rgb(251,227,174); stroke-width: 0; stroke-dasharray: none; stroke-linecap: butt; stroke-dashoffset: 0; stroke-linejoin: miter; stroke-miterlimit: 4; fill: rgb(255,255,255); fill-rule: nonzero; opacity: 1;" vector-effect="non-scaling-stroke"  transform=" translate(0, 0)" d="M -38.38235 -38.38235 L 38.38235999999999 -38.38235 L 38.38235999999999 38.38235999999999 L -38.38235 38.38235999999999 z" stroke-linecap="round" />
</g>
<g transform="matrix(0.04 0.19 -0.17 0.04 173.16 112.8)" id="bVxpf-c_n2bqFw6NSSG7v"  >
<path style="stroke: none; stroke-width: 1; stroke-dasharray: none; stroke-linecap: butt; stroke-dashoffset: 0; stroke-linejoin: miter; stroke-miterlimit: 4; fill: rgb(255,255,255); fill-rule: nonzero; opacity: 1;" vector-effect="non-scaling-stroke"  transform=" translate(0, 0)" d="M 20 -35.6535 C 31 -35.6535 40 -26.0265 40 -14.261500000000002 C 40 18.4505 0 34.7625 0 35.653499999999994 L 0 35.653499999999994 C 0 34.76349999999999 -40 18.540499999999994 -40 -14.261500000000005 C -40 -26.115500000000004 -31 -35.65350000000001 -20 -35.65350000000001 C -8.9 -35.65350000000001 0 18.901399999999995 0 30.755399999999995 C 0 18.901399999999995 8.9 -35.65350000000001 20 -35.65350000000001 z" stroke-linecap="round" />
</g>
<g transform="matrix(0.86 0 0 0.92 127.63 91.69)" id="NfQQsq11Nzqi_9lcphamJ"  >
<path style="stroke: rgb(0,0,0); stroke-width: 0; stroke-dasharray: none; stroke-linecap: butt; stroke-dashoffset: 0; stroke-linejoin: miter; stroke-miterlimit: 4; fill: rgb(48,39,4); fill-rule: nonzero; opacity: 1;" vector-effect="non-scaling-stroke"  transform=" translate(0, 0)" d="M 8.99835 -10.66176 L -8.99836 2.57038 L 5.46242 10.66177 z" stroke-linecap="round" />
</g>
<g transform="matrix(0.86 0 0 0.92 138.17 92.16)" id="_58TQqVfayCkqmzNJv3Og"  >
<path style="stroke: rgb(0,0,0); stroke-width: 0; stroke-dasharray: none; stroke-linecap: butt; stroke-dashoffset: 0; stroke-linejoin: miter; stroke-miterlimit: 4; fill: rgb(48,39,4); fill-rule: nonzero; opacity: 1;" vector-effect="non-scaling-stroke"  transform=" translate(0, 0)" d="M 15.49267 -11.61258 L -15.49267 6.7106200000000005 L 0.8745499999999993 11.612580000000001 z" stroke-linecap="round" />
</g>
<g transform="matrix(0.86 0 0 0.92 145.54 93.94)" id="Gd9gEU0Lj_NBLOPja-HRm"  >
<path style="stroke: rgb(0,0,0); stroke-width: 0; stroke-dasharray: none; stroke-linecap: butt; stroke-dashoffset: 0; stroke-linejoin: miter; stroke-miterlimit: 4; fill: rgb(48,39,4); fill-rule: nonzero; opacity: 1;" vector-effect="non-scaling-stroke"  transform=" translate(0, 0)" d="M 16.99068 -8.7175 L -16.99068 7.691550000000001 L 3.2651900000000005 8.71751 z" stroke-linecap="round" />
</g>
<g transform="matrix(0.77 0 0 0.89 137.66 156.15)" id="ourwXZ_7sWpn26j4NjuIH"  >
<path style="stroke: rgb(0,0,0); stroke-width: 0; stroke-dasharray: none; stroke-linecap: butt; stroke-dashoffset: 0; stroke-linejoin: miter; stroke-miterlimit: 4; fill: rgb(198,58,100); fill-rule: nonzero; opacity: 1;" vector-effect="non-scaling-stroke"  transform=" translate(0, 0)" d="M -5.26151 -13.88006 L 3.99181 -13.88006 L 6.72293 6.737200000000001 L -0.36057000000000006 13.88006 L -6.72294 6.7372000000000005 z" stroke-linecap="round" />
</g>
<g transform="matrix(0.46 0 0 0.11 90.07 153.61)" id="dd_ydtdlnKWfpY_op0Xqz"  >
<path style="stroke: rgb(12,204,240); stroke-width: 0; stroke-dasharray: none; stroke-linecap: butt; stroke-dashoffset: 0; stroke-linejoin: miter; stroke-miterlimit: 4; fill: rgb(255,255,255); fill-rule: nonzero; opacity: 1;" vector-effect="non-scaling-stroke"  transform=" translate(0, 0)" d="M -40.10152 -40.10152 L 40.101530000000004 -40.10152 L 40.101530000000004 40.101530000000004 L -40.10152 40.101530000000004 z" stroke-linecap="round" />
</g>
<g transform="matrix(-0.12 0 0 0.08 88.35 153.61)" id="F-iAA-L_D5XM_AFq8pn35"  >
<path style="stroke: none; stroke-width: 1; stroke-dasharray: none; stroke-linecap: butt; stroke-dashoffset: 0; stroke-linejoin: miter; stroke-miterlimit: 4; fill: rgb(81,50,22); fill-rule: nonzero; opacity: 1;" vector-effect="non-scaling-stroke"  transform=" translate(0, 0)" d="M 250.60942 32.5 L 308.23708 0 L 250.60942 -32.5 L 250.60942 -11.895 L 147.94456 -11.895 L -298.75971000000004 -11.895 L -308.23709 11.952000000000002 L 250.60941999999994 11.952000000000002 z" stroke-linecap="round" />
</g>
<g transform="matrix(0.86 0 0 0.92 112.78 154.25)" id="FJLq9l0dZH7m1F9piX5_a"  >
<path style="stroke: rgb(0,0,0); stroke-width: 0; stroke-dasharray: none; stroke-linecap: butt; stroke-dashoffset: 0; stroke-linejoin: miter; stroke-miterlimit: 4; fill: rgb(81,50,22); fill-rule: nonzero; opacity: 1;" vector-effect="non-scaling-stroke"  transform=" translate(0, 0)" d="M 5.92091 -4.10265 L -2.5282899999999993 -4.10265 L -6.536859999999999 -0.6979799999999998 L -2.5282899999999993 4.102640000000001 L 6.536870000000001 4.102640000000001 z" stroke-linecap="round" />
</g>
<g transform="matrix(0.86 0 0 0.92 108.19 122.3)" id="gfSI428ss12BaHseJz-cF"  >
<path style="stroke: rgb(181,181,181); stroke-width: 1; stroke-dasharray: none; stroke-linecap: butt; stroke-dashoffset: 0; stroke-linejoin: miter; stroke-miterlimit: 4; fill: rgb(255,255,255); fill-opacity: 0; fill-rule: nonzero; opacity: 1;" vector-effect="non-scaling-stroke"  transform=" translate(0, 0)" d="M -15.55641 -32.62029 L 15.55641 32.62028000000001" stroke-linecap="round" />
</g>
<g transform="matrix(0.72 0 0 0.77 107.97 182.41)" id="PdpgpDS8b581Iac176X3T"  >
<path style="stroke: rgb(181,181,181); stroke-width: 1; stroke-dasharray: none; stroke-linecap: butt; stroke-dashoffset: 0; stroke-linejoin: miter; stroke-miterlimit: 4; fill: rgb(255,255,255); fill-opacity: 0; fill-rule: nonzero; opacity: 1;" vector-effect="non-scaling-stroke"  transform=" translate(0, 0)" d="M -18.89114 38.14865 L 18.891150000000003 -38.14865" stroke-linecap="round" />
</g>
<g transform="matrix(0.85 0 0 0.75 83.95 152.91)" id="wXfDwq3FbHjWSIuGVhJhq"  >
<path style="stroke: rgb(0,0,0); stroke-width: 0; stroke-dasharray: none; stroke-linecap: butt; stroke-dashoffset: 0; stroke-linejoin: miter; stroke-miterlimit: 4; fill: rgb(81,50,22); fill-rule: nonzero; opacity: 1;" vector-effect="non-scaling-stroke"  transform=" translate(0, 0)" d="M 11.60203 -82.67899 C 11.60203 -82.67899 -47.28122 -10.254800000000003 11.60203 82.13099 C 14.269509999999999 86.31617 13.9043 79.33961 13.9043 79.33961 C 13.9043 79.33961 -44.47133 7.852519999999998 13.9043 -81.48758000000001 C 16.25689 -85.08807 11.60203 -82.67898000000001 11.60203 -82.67898000000001 z" stroke-linecap="round" />
</g>
<g transform="matrix(0.73 0 0 0.79 71.5 153.61)" id="y8Xk6Xu56lhnqHrN_gHxx"  >
<path style="stroke: rgb(48,243,236); stroke-width: 0; stroke-dasharray: none; stroke-linecap: butt; stroke-dashoffset: 0; stroke-linejoin: miter; stroke-miterlimit: 4; fill: rgb(254,212,173); fill-rule: nonzero; opacity: 1;" vector-effect="non-scaling-stroke"  transform=" translate(0, 0)" d="M 0 -8.62944 C 4.76345 -8.62944 8.62944 -4.763450000000001 8.62944 0 C 8.62944 4.76345 4.763450000000001 8.62944 0 8.62944 C -4.76345 8.62944 -8.62944 4.763450000000001 -8.62944 0 C -8.62944 -4.76345 -4.763450000000001 -8.62944 0 -8.62944 z" stroke-linecap="round" />
</g>
<g transform="matrix(1 0 0 1 154.54 152.25)" id="dD_dKZBgIfAOrZanNgZtH"  >
<path style="stroke: rgb(181,181,181); stroke-width: 0; stroke-dasharray: none; stroke-linecap: butt; stroke-dashoffset: 0; stroke-linejoin: miter; stroke-miterlimit: 4; fill: rgb(231,231,231); fill-rule: nonzero; opacity: 1;" vector-effect="non-scaling-stroke"  transform=" translate(0, 0)" d="M -5.63158 -5.79142 L -4.834549999999999 -5.68413 L -4.834549999999999 -5.68413 C -1.7300299999999993 -5.26621 1.4157300000000008 -5.25486 4.5231900000000005 -5.6503499999999995 L 5.631590000000001 -5.79142 L 5.631590000000001 5.47174 L 3.9213500000000012 5.619949999999999 L 3.9213500000000012 5.619949999999999 C 1.2072400000000014 5.855149999999999 -1.522409999999999 5.84838 -4.235319999999999 5.59972 L -5.631569999999999 5.47174 z" stroke-linecap="round" />
</g>
<g transform="matrix(0.73 0 0 0.79 121.33 154.25)" id="9t71U1WEdV85jLBEgmiLC"  >
<path style="stroke: rgb(48,243,236); stroke-width: 0; stroke-dasharray: none; stroke-linecap: butt; stroke-dashoffset: 0; stroke-linejoin: miter; stroke-miterlimit: 4; fill: rgb(254,212,173); fill-rule: nonzero; opacity: 1;" vector-effect="non-scaling-stroke"  transform=" translate(0, 0)" d="M 0 -8.62944 C 4.76345 -8.62944 8.62944 -4.763450000000001 8.62944 0 C 8.62944 4.76345 4.763450000000001 8.62944 0 8.62944 C -4.76345 8.62944 -8.62944 4.763450000000001 -8.62944 0 C -8.62944 -4.76345 -4.763450000000001 -8.62944 0 -8.62944 z" stroke-linecap="round" />
</g>
</svg>