<?xml version="1.0" encoding="utf-8"?>
<svg xmlns="http://www.w3.org/2000/svg" viewBox="0 0 500 500" xmlns:bx="https://boxy-svg.com" width="500px" height="500px"><defs><bx:export><bx:file format="svg" href="#object-0"/><bx:file format="svg" path="Untitled 2.svg"/></bx:export></defs><path fill-rule="nonzero" d="M 263.324 146.776 L 278.231 244.175 C 234.441 239.818 185.833 229.008 144.814 200.039 C 98.918 167.638 61.794 111.835 50.319 15.571 C 49.483 8.425 42.991 3.309 35.836 4.156 C 30.325 4.809 26.016 8.83 24.727 13.908 C 14.262 45.271 8.896 74.903 7.77 102.716 C 4.626 179.082 33.152 241.425 75.268 288.926 C 116.97 335.976 172.08 368.407 222.727 385.42 C 242.136 391.96 260.996 396.26 278.289 398.269 L 263.439 480.818 C 262.169 487.878 266.872 494.65 273.932 495.909 C 277.846 496.602 281.664 495.467 284.511 493.12 L 483.694 328.368 C 489.234 323.781 490.013 315.548 485.426 310.018 L 483.945 308.489 L 284.8 134.994 C 279.375 130.261 271.124 130.84 266.391 136.264 C 263.873 139.147 262.75 142.991 263.323 146.776 L 263.324 146.776 Z" style="fill: rgb(30, 81, 141);" id="object-0"/></svg>