<svg width="118" height="175" viewBox="0 0 118 175" fill="none" xmlns="http://www.w3.org/2000/svg">
<path d="M1.82941 71.2033C-0.226709 69.6522 2.01947 66.5162 3.39957 65.1421L56.3996 4.64205C57.3996 3.30869 59.7426 0.718633 61.1147 1.02495C62.4869 1.33126 64.543 3.23065 65.3995 4.14205C81.0662 22.9754 112.9 61.3421 114.9 64.1421C117.4 67.6421 118.4 70.1421 116.4 71.6421C114.8 72.842 112.066 72.8087 110.9 72.6421C104.9 71.6421 92.1995 69.4421 89.3995 68.6421C86.5995 67.842 85.2329 69.6421 84.8995 70.6421L66.3995 165.142C65.3995 170.642 64.3995 174.142 60.8995 174.142C58.8995 174.142 57.606 170.562 56.8995 167.642C49.3995 136.642 37.8995 75.1421 37.3995 72.1421C36.7431 68.2036 35.4044 68.4541 34.4049 68.641L34.3995 68.6421C29.5662 69.3087 18.6276 70.8859 13.5398 71.8614C7.18015 73.0808 4.39957 73.1421 1.82941 71.2033Z" fill="#1E518D"/>
</svg>
